<svg width="42" height="42" viewBox="0 0 42 42" fill="none" xmlns="http://www.w3.org/2000/svg">
<circle cx="20.7589" cy="21.456" r="20.544" fill="white"/>
<g clip-path="url(#clip0_25_2576)">
<path d="M30.8647 23.9283C31.3173 23.9283 31.6843 23.5614 31.6843 23.1087V17.7815C31.6843 15.9739 30.2136 14.5032 28.406 14.5032H27.1618C26.8108 14.5032 26.499 14.28 26.3859 13.9477L26.1379 13.2192C25.7986 12.2225 24.8633 11.5527 23.8104 11.5527H18.5745C17.5419 11.5527 16.6126 12.2052 16.2619 13.1764L15.9782 13.962C15.8613 14.2857 15.5516 14.5032 15.2074 14.5032H13.9814C12.1738 14.5032 10.7031 15.9739 10.7031 17.7815V27.2066C10.7031 29.0143 12.1738 30.4849 13.9814 30.4849H28.406C30.2136 30.4849 31.6843 29.0143 31.6843 27.2066C31.6843 26.754 31.3173 26.3871 30.8647 26.3871C30.412 26.3871 30.0451 26.754 30.0451 27.2066C30.0451 28.1105 29.3098 28.8458 28.406 28.8458H13.9814C13.0776 28.8458 12.3423 28.1105 12.3423 27.2066V17.7815C12.3423 16.8777 13.0776 16.1424 13.9814 16.1424H15.2074C16.2399 16.1424 17.1692 15.4899 17.5199 14.5187L17.8036 13.7331C17.9205 13.4094 18.2303 13.1919 18.5745 13.1919H23.8104C24.1613 13.1919 24.4731 13.4151 24.5862 13.7474L24.8342 14.4759C25.1735 15.4726 26.1088 16.1424 27.1618 16.1424H28.406C29.3098 16.1424 30.0451 16.8777 30.0451 17.7815V23.1087C30.0451 23.5614 30.412 23.9283 30.8647 23.9283Z" fill="#141E3C"/>
<path d="M21.2356 16.962C18.4112 16.962 16.1133 19.2599 16.1133 22.0844C16.1133 24.9088 18.4112 27.2067 21.2356 27.2067C24.0601 27.2067 26.358 24.9088 26.358 22.0844C26.358 19.2599 24.0601 16.962 21.2356 16.962ZM21.2356 25.5676C19.315 25.5676 17.7524 24.005 17.7524 22.0844C17.7524 20.1637 19.315 18.6012 21.2356 18.6012C23.1563 18.6012 24.7188 20.1637 24.7188 22.0844C24.7188 24.005 23.1563 25.5676 21.2356 25.5676Z" fill="#141E3C"/>
</g>
<defs>
<clipPath id="clip0_25_2576">
<rect width="20.9811" height="20.9811" fill="white" transform="translate(10.7031 10.5283)"/>
</clipPath>
</defs>
</svg>
